<svg xmlns="http://www.w3.org/2000/svg" width="512" height="512" viewBox="0 0 512 512">
  <!-- Background Circle -->
  <circle cx="256" cy="256" r="256" fill="#4285f4"/>
  
  <!-- Download Arrow -->
  <g fill="#ffffff">
    <path d="M256 352c-4.4 0-8-3.6-8-8V120c0-4.4 3.6-8 8-8s8 3.6 8 8v224c0 4.4-3.6 8-8 8z"/>
    <path d="M256 352c-2 0-4.1-.8-5.7-2.3l-80-80c-3.1-3.1-3.1-8.2 0-11.3 3.1-3.1 8.2-3.1 11.3 0L256 332.7l74.3-74.3c3.1-3.1 8.2-3.1 11.3 0 3.1 3.1 3.1 8.2 0 11.3l-80 80c-1.5 1.5-3.5 2.3-5.6 2.3z"/>
    <path d="M376 392H136c-4.4 0-8-3.6-8-8s3.6-8 8-8h240c4.4 0 8 3.6 8 8s-3.6 8-8 8z"/>
  </g>
  
  <!-- Social Media Icons (Simplified) -->
  <g>
    <!-- YouTube -->
    <circle cx="160" cy="160" r="24" fill="#ea4335"/>
    <!-- Facebook -->
    <circle cx="224" cy="160" r="24" fill="#1877f2"/>
    <!-- Instagram -->
    <circle cx="288" cy="160" r="24" fill="#c13584"/>
    <!-- Twitter -->
    <circle cx="352" cy="160" r="24" fill="#1da1f2"/>
  </g>
  
  <!-- Monetization Symbol -->
  <g>
    <circle cx="256" cy="256" r="48" fill="#34a853" opacity="0.8"/>
    <text x="256" y="276" font-family="Arial" font-size="48" font-weight="bold" fill="#ffffff" text-anchor="middle">$</text>
  </g>
</svg>